# xmcd CD database file generated by LOLA_Freedb v0.9beta0
# 
# Track frame offsets:
#      183
#      12210
#      27995
#      41910
#      53343
#      66240
#      79735
#      95048
#      112168
#      126083
#      140915
#      150473
#      164408
#      173653
#      189920
#      206438
# 
# Disc length: 2970 seconds
# 
# Revision: 0 
# Processed by: cddbd v1.5.2PL0 Copyright (c) Steve Scherf et al.
# Submitted via: LOLA_Freedb v0.9beta0
# 
DISCID=d80b9810
DTITLE=Ralf Paulsen - Ralf Paulsen - Hat ein Cowboy graue Schläfen
DYEAR=1900
DGENRE=
TTITLE0=Ralf Paulsen - Hat ein Cowboy graue Schläfen
TTITLE1=Ralf Paulsen - Walzer der Rose
TTITLE2=Ralf Paulsen - Glaub' an Dich
TTITLE3=Ralf Paulsen - Ich wünsch' Dir Glück
TTITLE4=Ralf Paulsen - Fang doch den Morgen mal mir Country Music an
TTITLE5=Ralf Paulsen - Berliner sind die Ander'n auch
TTITLE6=Ralf Paulsen - Die Lady mit dem Colt
TTITLE7=Ralf Paulsen - Gib nicht auf
TTITLE8=Ralf Paulsen - Ich wünsch' Dir einen guten Tag
TTITLE9=Ralf Paulsen - Ein Herz für Cowboys
TTITLE10=Ralf Paulsen - Bonanza
TTITLE11=Ralf Paulsen - Das Lied schrieb die Erinnerung
TTITLE12=Ralf Paulsen - Tränen in Deinen Augen
TTITLE13=Ralf Paulsen - Lass doch die Sonne für Dich scheinen
TTITLE14=Ralf Paulsen - Recklinghausen
TTITLE15=Ralf Paulsen - Neu sind die Namen
EXTD=
EXTT0=
EXTT1=
EXTT2=
EXTT3=
EXTT4=
EXTT5=
EXTT6=
EXTT7=
EXTT8=
EXTT9=
EXTT10=
EXTT11=
EXTT12=
EXTT13=
EXTT14=
EXTT15=
PLAYORDER=
